<mxfile host="app.diagrams.net" modified="2023-09-27T20:38:33.434Z" agent="Mozilla/5.0 (Windows NT 10.0; Win64; x64) AppleWebKit/537.36 (KHTML, like Gecko) Chrome/117.0.0.0 Safari/537.36" etag="5_pYt-QsinL8wgsbUO9s" version="21.8.2" type="github">
  <diagram name="PÃ¡gina-1" id="YERg97NMvnWbzYDGCcGS">
    <mxGraphModel dx="1050" dy="691" grid="1" gridSize="10" guides="1" tooltips="1" connect="1" arrows="1" fold="1" page="1" pageScale="1" pageWidth="827" pageHeight="1169" math="0" shadow="0">
      <root>
        <mxCell id="0" />
        <mxCell id="1" parent="0" />
        <mxCell id="98vF4Vl06xAUTp1NS6Lz-2" value="&lt;b&gt;&lt;font style=&quot;font-size: 18px;&quot;&gt;Inicio&lt;/font&gt;&lt;/b&gt;" style="rounded=1;whiteSpace=wrap;html=1;" vertex="1" parent="1">
          <mxGeometry x="354" y="50" width="120" height="60" as="geometry" />
        </mxCell>
        <mxCell id="98vF4Vl06xAUTp1NS6Lz-3" value="&lt;b&gt;&lt;font style=&quot;font-size: 18px;&quot;&gt;Fim&lt;/font&gt;&lt;/b&gt;" style="rounded=1;whiteSpace=wrap;html=1;" vertex="1" parent="1">
          <mxGeometry x="354" y="620" width="120" height="60" as="geometry" />
        </mxCell>
      </root>
    </mxGraphModel>
  </diagram>
</mxfile>
